<mxfile host="Electron" modified="2023-04-11T11:12:18.354Z" agent="Mozilla/5.0 (X11; Linux x86_64) AppleWebKit/537.36 (KHTML, like Gecko) draw.io/21.1.2 Chrome/106.0.5249.199 Electron/21.4.3 Safari/537.36" etag="bBjjE_iEhApYh68-BYme" version="21.1.2" type="device">
  <diagram name="Page-1" id="MR886Cy3C2vmONpptm1g">
    <mxGraphModel dx="1434" dy="843" grid="1" gridSize="10" guides="1" tooltips="1" connect="1" arrows="1" fold="1" page="1" pageScale="1" pageWidth="850" pageHeight="1100" math="0" shadow="0">
      <root>
        <mxCell id="0" />
        <mxCell id="1" parent="0" />
        <mxCell id="-HJEB60_RRp2c4dYzQ01-13" value="" style="endArrow=classic;html=1;rounded=0;strokeWidth=3;" edge="1" parent="1">
          <mxGeometry width="50" height="50" relative="1" as="geometry">
            <mxPoint x="220" y="340" as="sourcePoint" />
            <mxPoint x="660" y="340" as="targetPoint" />
          </mxGeometry>
        </mxCell>
        <mxCell id="-HJEB60_RRp2c4dYzQ01-14" value="&lt;font style=&quot;&quot;&gt;&lt;font face=&quot;Times New Roman&quot; style=&quot;font-size: 30px;&quot;&gt;&lt;b&gt;Time&lt;/b&gt;&lt;/font&gt;&lt;br&gt;&lt;/font&gt;" style="text;html=1;strokeColor=none;fillColor=none;align=center;verticalAlign=middle;whiteSpace=wrap;rounded=0;" vertex="1" parent="1">
          <mxGeometry x="260" y="290" width="60" height="30" as="geometry" />
        </mxCell>
        <mxCell id="-HJEB60_RRp2c4dYzQ01-24" value="" style="rounded=0;whiteSpace=wrap;html=1;fillColor=#A9C4EB;fontColor=#ffffff;strokeColor=#000000;gradientColor=#FFFFFF;strokeWidth=3;" vertex="1" parent="1">
          <mxGeometry x="560" y="60" width="20" height="260" as="geometry" />
        </mxCell>
        <mxCell id="-HJEB60_RRp2c4dYzQ01-37" value="" style="rounded=0;whiteSpace=wrap;html=1;fillColor=#88B3EB;fontColor=#ffffff;strokeColor=#000000;gradientColor=#FFFFFF;strokeWidth=3;" vertex="1" parent="1">
          <mxGeometry x="580" y="60" width="20" height="260" as="geometry" />
        </mxCell>
        <mxCell id="-HJEB60_RRp2c4dYzQ01-39" value="" style="rounded=0;whiteSpace=wrap;html=1;fillColor=#6AA6EB;fontColor=#ffffff;strokeColor=#000000;gradientColor=#FFFFFF;strokeWidth=3;" vertex="1" parent="1">
          <mxGeometry x="600" y="60" width="20" height="260" as="geometry" />
        </mxCell>
        <mxCell id="-HJEB60_RRp2c4dYzQ01-40" value="" style="rounded=0;whiteSpace=wrap;html=1;fillColor=#4B90EB;fontColor=#ffffff;strokeColor=#000000;gradientColor=#FFFFFF;strokeWidth=3;" vertex="1" parent="1">
          <mxGeometry x="620" y="60" width="20" height="260" as="geometry" />
        </mxCell>
        <mxCell id="-HJEB60_RRp2c4dYzQ01-41" value="" style="rounded=0;whiteSpace=wrap;html=1;fillColor=#3188EB;fontColor=#ffffff;strokeColor=#000000;gradientColor=#ffffff;strokeWidth=3;" vertex="1" parent="1">
          <mxGeometry x="640" y="60" width="20" height="260" as="geometry" />
        </mxCell>
        <mxCell id="-HJEB60_RRp2c4dYzQ01-60" value="" style="rounded=0;whiteSpace=wrap;html=1;fillColor=#A9C4EB;fontColor=#ffffff;strokeColor=#000000;gradientColor=#FFFFFF;strokeWidth=3;" vertex="1" parent="1">
          <mxGeometry x="380" y="60" width="20" height="260" as="geometry" />
        </mxCell>
        <mxCell id="-HJEB60_RRp2c4dYzQ01-61" value="" style="rounded=0;whiteSpace=wrap;html=1;fillColor=#88B3EB;fontColor=#ffffff;strokeColor=#000000;gradientColor=#FFFFFF;strokeWidth=3;" vertex="1" parent="1">
          <mxGeometry x="400" y="60" width="20" height="260" as="geometry" />
        </mxCell>
        <mxCell id="-HJEB60_RRp2c4dYzQ01-62" value="" style="rounded=0;whiteSpace=wrap;html=1;fillColor=#6AA6EB;fontColor=#ffffff;strokeColor=#000000;gradientColor=#FFFFFF;strokeWidth=3;" vertex="1" parent="1">
          <mxGeometry x="420" y="60" width="20" height="260" as="geometry" />
        </mxCell>
        <mxCell id="-HJEB60_RRp2c4dYzQ01-63" value="" style="rounded=0;whiteSpace=wrap;html=1;fillColor=#4B90EB;fontColor=#ffffff;strokeColor=#000000;gradientColor=#FFFFFF;strokeWidth=3;" vertex="1" parent="1">
          <mxGeometry x="440" y="60" width="20" height="260" as="geometry" />
        </mxCell>
        <mxCell id="-HJEB60_RRp2c4dYzQ01-64" value="" style="rounded=0;whiteSpace=wrap;html=1;fillColor=#3188EB;fontColor=#ffffff;strokeColor=#000000;gradientColor=#ffffff;strokeWidth=3;" vertex="1" parent="1">
          <mxGeometry x="460" y="60" width="20" height="260" as="geometry" />
        </mxCell>
        <mxCell id="-HJEB60_RRp2c4dYzQ01-66" value="" style="rounded=0;whiteSpace=wrap;html=1;fillColor=#3188EB;fontColor=#ffffff;strokeColor=#000000;gradientColor=#ffffff;strokeWidth=3;" vertex="1" parent="1">
          <mxGeometry x="460" y="360" width="20" height="260" as="geometry" />
        </mxCell>
        <mxCell id="-HJEB60_RRp2c4dYzQ01-67" value="" style="rounded=0;whiteSpace=wrap;html=1;fillColor=#88B3EB;fontColor=#ffffff;strokeColor=#000000;gradientColor=#FFFFFF;strokeWidth=3;" vertex="1" parent="1">
          <mxGeometry x="400" y="360" width="20" height="260" as="geometry" />
        </mxCell>
        <mxCell id="-HJEB60_RRp2c4dYzQ01-68" value="" style="rounded=0;whiteSpace=wrap;html=1;fillColor=#60CFEB;fontColor=#ffffff;strokeColor=#000000;gradientColor=#FFFFFF;strokeWidth=3;" vertex="1" parent="1">
          <mxGeometry x="340" y="360" width="20" height="260" as="geometry" />
        </mxCell>
        <mxCell id="-HJEB60_RRp2c4dYzQ01-70" value="" style="rounded=0;whiteSpace=wrap;html=1;fillColor=#4BEBAB;fontColor=#ffffff;strokeColor=#000000;gradientColor=#FFFFFF;strokeWidth=3;" vertex="1" parent="1">
          <mxGeometry x="280" y="360" width="20" height="260" as="geometry" />
        </mxCell>
        <mxCell id="-HJEB60_RRp2c4dYzQ01-71" value="" style="rounded=0;whiteSpace=wrap;html=1;fillColor=#31EB69;fontColor=#ffffff;strokeColor=#000000;gradientColor=#FFFFFF;strokeWidth=3;" vertex="1" parent="1">
          <mxGeometry x="220" y="360" width="20" height="260" as="geometry" />
        </mxCell>
        <mxCell id="-HJEB60_RRp2c4dYzQ01-73" value="&lt;font style=&quot;&quot;&gt;&lt;font face=&quot;Times New Roman&quot; style=&quot;font-size: 25px;&quot;&gt;&lt;b&gt;Temporal &lt;br&gt;Stride&lt;/b&gt;&lt;/font&gt;&lt;br&gt;&lt;/font&gt;" style="text;html=1;align=center;verticalAlign=middle;resizable=0;points=[];autosize=1;strokeColor=default;fillColor=default;rounded=1;strokeWidth=3;" vertex="1" parent="1">
          <mxGeometry x="285" y="640" width="130" height="70" as="geometry" />
        </mxCell>
        <mxCell id="-HJEB60_RRp2c4dYzQ01-74" value="" style="endArrow=none;dashed=1;html=1;rounded=0;strokeWidth=3;" edge="1" parent="1">
          <mxGeometry width="50" height="50" relative="1" as="geometry">
            <mxPoint x="520" y="620" as="sourcePoint" />
            <mxPoint x="520" y="360" as="targetPoint" />
          </mxGeometry>
        </mxCell>
        <mxCell id="-HJEB60_RRp2c4dYzQ01-75" value="" style="endArrow=none;dashed=1;html=1;rounded=0;strokeWidth=3;" edge="1" parent="1">
          <mxGeometry width="50" height="50" relative="1" as="geometry">
            <mxPoint x="520" y="320" as="sourcePoint" />
            <mxPoint x="520" y="60" as="targetPoint" />
          </mxGeometry>
        </mxCell>
        <mxCell id="-HJEB60_RRp2c4dYzQ01-76" value="" style="endArrow=classic;html=1;rounded=0;strokeWidth=3;" edge="1" parent="1">
          <mxGeometry width="50" height="50" relative="1" as="geometry">
            <mxPoint x="360" y="320" as="sourcePoint" />
            <mxPoint x="360" y="60" as="targetPoint" />
          </mxGeometry>
        </mxCell>
        <mxCell id="-HJEB60_RRp2c4dYzQ01-77" value="&lt;font style=&quot;&quot;&gt;&lt;font face=&quot;Times New Roman&quot; style=&quot;font-size: 30px;&quot;&gt;&lt;b&gt;Pattern&lt;/b&gt;&lt;/font&gt;&lt;br&gt;&lt;/font&gt;" style="text;html=1;strokeColor=none;fillColor=none;align=center;verticalAlign=middle;whiteSpace=wrap;rounded=0;rotation=-90;" vertex="1" parent="1">
          <mxGeometry x="300" y="175" width="60" height="30" as="geometry" />
        </mxCell>
        <mxCell id="-HJEB60_RRp2c4dYzQ01-79" value="&lt;font style=&quot;&quot;&gt;&lt;font face=&quot;Times New Roman&quot; style=&quot;font-size: 25px;&quot;&gt;&lt;b&gt;Pattern &lt;br&gt;Stride&lt;/b&gt;&lt;/font&gt;&lt;br&gt;&lt;/font&gt;" style="text;html=1;align=center;verticalAlign=middle;resizable=0;points=[];autosize=1;strokeColor=default;fillColor=default;rounded=1;strokeWidth=3;" vertex="1" parent="1">
          <mxGeometry x="560" y="640" width="100" height="70" as="geometry" />
        </mxCell>
        <mxCell id="-HJEB60_RRp2c4dYzQ01-54" value="" style="rounded=0;whiteSpace=wrap;html=1;fillColor=#A9C4EB;fontColor=#ffffff;strokeColor=default;gradientColor=#FFFFFF;strokeWidth=3;" vertex="1" parent="1">
          <mxGeometry x="560" y="360" width="20" height="260" as="geometry" />
        </mxCell>
        <mxCell id="-HJEB60_RRp2c4dYzQ01-55" value="" style="rounded=0;whiteSpace=wrap;html=1;fillColor=#88B3EB;fontColor=#ffffff;strokeColor=default;gradientColor=#FFFFFF;strokeWidth=3;" vertex="1" parent="1">
          <mxGeometry x="580" y="360" width="20" height="260" as="geometry" />
        </mxCell>
        <mxCell id="-HJEB60_RRp2c4dYzQ01-56" value="" style="rounded=0;whiteSpace=wrap;html=1;fillColor=#6AA6EB;fontColor=#ffffff;strokeColor=default;gradientColor=#FFFFFF;strokeWidth=3;" vertex="1" parent="1">
          <mxGeometry x="600" y="360" width="20" height="260" as="geometry" />
        </mxCell>
        <mxCell id="-HJEB60_RRp2c4dYzQ01-57" value="" style="rounded=0;whiteSpace=wrap;html=1;fillColor=#4B90EB;fontColor=#ffffff;strokeColor=default;gradientColor=#FFFFFF;strokeWidth=3;" vertex="1" parent="1">
          <mxGeometry x="620" y="360" width="20" height="260" as="geometry" />
        </mxCell>
        <mxCell id="-HJEB60_RRp2c4dYzQ01-58" value="" style="rounded=0;whiteSpace=wrap;html=1;fillColor=#3188EB;fontColor=#ffffff;strokeColor=default;gradientColor=#ffffff;strokeWidth=3;" vertex="1" parent="1">
          <mxGeometry x="640" y="360" width="20" height="260" as="geometry" />
        </mxCell>
        <mxCell id="-HJEB60_RRp2c4dYzQ01-81" value="" style="rounded=0;whiteSpace=wrap;html=1;strokeColor=none;" vertex="1" parent="1">
          <mxGeometry x="550" y="420" width="120" height="20" as="geometry" />
        </mxCell>
        <mxCell id="-HJEB60_RRp2c4dYzQ01-83" value="" style="rounded=0;whiteSpace=wrap;html=1;strokeColor=none;" vertex="1" parent="1">
          <mxGeometry x="550" y="380" width="120" height="20" as="geometry" />
        </mxCell>
        <mxCell id="-HJEB60_RRp2c4dYzQ01-84" value="" style="rounded=0;whiteSpace=wrap;html=1;strokeColor=none;" vertex="1" parent="1">
          <mxGeometry x="550" y="460" width="120" height="20" as="geometry" />
        </mxCell>
        <mxCell id="-HJEB60_RRp2c4dYzQ01-85" value="" style="rounded=0;whiteSpace=wrap;html=1;strokeColor=none;" vertex="1" parent="1">
          <mxGeometry x="550" y="500" width="120" height="20" as="geometry" />
        </mxCell>
        <mxCell id="-HJEB60_RRp2c4dYzQ01-86" value="" style="rounded=0;whiteSpace=wrap;html=1;strokeColor=none;" vertex="1" parent="1">
          <mxGeometry x="550" y="540" width="120" height="20" as="geometry" />
        </mxCell>
        <mxCell id="-HJEB60_RRp2c4dYzQ01-87" value="" style="rounded=0;whiteSpace=wrap;html=1;strokeColor=none;" vertex="1" parent="1">
          <mxGeometry x="550" y="580" width="120" height="20" as="geometry" />
        </mxCell>
      </root>
    </mxGraphModel>
  </diagram>
</mxfile>
